<svg xmlns="http://www.w3.org/2000/svg" xmlns:xlink="http://www.w3.org/1999/xlink" width="384" zoomAndPan="magnify" viewBox="0 0 288 287.999989" height="384" preserveAspectRatio="xMidYMid meet" version="1.0"><defs><clipPath id="ee9b744685"><path d="M 33.328125 75 L 166 75 L 166 215.183594 L 33.328125 215.183594 Z M 33.328125 75 " clip-rule="nonzero"/></clipPath><clipPath id="8779edcba4"><path d="M 122 50.183594 L 254.578125 50.183594 L 254.578125 190 L 122 190 Z M 122 50.183594 " clip-rule="nonzero"/></clipPath><clipPath id="54f24465a7"><path d="M 62.914062 147.507812 L 144 147.507812 L 144 198.417969 L 62.914062 198.417969 Z M 62.914062 147.507812 " clip-rule="nonzero"/></clipPath><clipPath id="af9cbe9527"><path d="M 0.914062 0.507812 L 82 0.507812 L 82 51.417969 L 0.914062 51.417969 Z M 0.914062 0.507812 " clip-rule="nonzero"/></clipPath><clipPath id="40a253b009"><rect x="0" width="82" y="0" height="52"/></clipPath><clipPath id="d35a441f8f"><path d="M 45 132 L 162 132 L 162 232 L 45 232 Z M 45 132 " clip-rule="nonzero"/></clipPath><clipPath id="febf46af07"><path d="M 45.382812 144.40625 L 160.296875 132.796875 L 169.71875 226.070312 L 54.804688 237.679688 Z M 45.382812 144.40625 " clip-rule="nonzero"/></clipPath><clipPath id="1e557e84a2"><path d="M 45.382812 144.40625 L 160.296875 132.796875 L 169.71875 226.070312 L 54.804688 237.679688 Z M 45.382812 144.40625 " clip-rule="nonzero"/></clipPath><clipPath id="95eb369cf6"><path d="M 45.453125 144.398438 L 160.449219 132.78125 L 169.886719 226.191406 L 54.890625 237.808594 Z M 45.453125 144.398438 " clip-rule="nonzero"/></clipPath><clipPath id="4bbfd3e9c8"><path d="M 165.230469 126.46875 L 216.628906 126.46875 L 216.628906 160.085938 L 165.230469 160.085938 Z M 165.230469 126.46875 " clip-rule="nonzero"/></clipPath><clipPath id="c6aedbd210"><path d="M 0.230469 0.46875 L 51.628906 0.46875 L 51.628906 34.085938 L 0.230469 34.085938 Z M 0.230469 0.46875 " clip-rule="nonzero"/></clipPath><clipPath id="d3e12ae5bd"><rect x="0" width="52" y="0" height="35"/></clipPath><clipPath id="ef53427a69"><path d="M 158 119 L 219 119 L 219 173 L 158 173 Z M 158 119 " clip-rule="nonzero"/></clipPath><clipPath id="fcb75089e1"><path d="M 167.582031 119.769531 L 218.878906 130.957031 L 209.769531 172.726562 L 158.472656 161.539062 Z M 167.582031 119.769531 " clip-rule="nonzero"/></clipPath><clipPath id="cdd552d3b2"><path d="M 137.253906 11 L 353.421875 58.144531 L 318.265625 219.355469 L 102.09375 172.210938 Z M 137.253906 11 " clip-rule="nonzero"/></clipPath><clipPath id="9a35e8f29c"><path d="M 158 124 L 216 124 L 216 167 L 158 167 Z M 158 124 " clip-rule="nonzero"/></clipPath><clipPath id="df43bf1439"><path d="M 167.582031 119.769531 L 218.878906 130.957031 L 209.769531 172.726562 L 158.472656 161.539062 Z M 167.582031 119.769531 " clip-rule="nonzero"/></clipPath><clipPath id="1391922655"><path d="M 137.253906 11 L 353.421875 58.144531 L 318.265625 219.355469 L 102.09375 172.210938 Z M 137.253906 11 " clip-rule="nonzero"/></clipPath><clipPath id="52c897014a"><path d="M 216 119 L 219 119 L 219 173 L 216 173 Z M 216 119 " clip-rule="nonzero"/></clipPath><clipPath id="8f060d1186"><path d="M 167.582031 119.769531 L 218.878906 130.957031 L 209.769531 172.726562 L 158.472656 161.539062 Z M 167.582031 119.769531 " clip-rule="nonzero"/></clipPath><clipPath id="0ad96c494f"><path d="M 137.253906 11 L 353.421875 58.144531 L 318.265625 219.355469 L 102.09375 172.210938 Z M 137.253906 11 " clip-rule="nonzero"/></clipPath></defs><g clip-path="url(#ee9b744685)"><path fill="#d4ac81" d="M 105.507812 215.359375 C 87.949219 215.359375 74.902344 204.945312 70.339844 201.324219 C 60.46875 193.4375 51.886719 179.894531 44.945312 160.996094 C 37.253906 140.210938 33.335938 117.839844 33.335938 94.578125 C 33.335938 91.949219 34.527344 89.46875 36.660156 87.882812 C 38.742188 86.246094 41.421875 85.75 44 86.445312 C 61.363281 91.105469 79.167969 92.644531 96.976562 91.054688 C 106.351562 90.214844 115.675781 88.476562 124.753906 85.898438 C 133.386719 83.46875 141.867188 80.195312 149.953125 76.273438 C 152.382812 75.085938 155.210938 75.132812 157.640625 76.375 C 160.070312 77.664062 161.65625 79.945312 162.054688 82.625 C 163.097656 89.914062 163.890625 97.355469 164.335938 104.746094 C 165.578125 124.242188 166.46875 138.328125 162.351562 155.835938 C 161.0625 161.292969 159.328125 168.734375 156.054688 176.671875 C 150.894531 189.167969 143.40625 198.941406 133.78125 205.738281 C 130.359375 208.167969 122.324219 213.820312 110.667969 215.160156 C 108.832031 215.261719 107.144531 215.359375 105.507812 215.359375 Z M 41.769531 92 C 41.222656 92 40.679688 92.199219 40.230469 92.496094 C 39.585938 92.992188 39.238281 93.683594 39.238281 94.480469 C 39.289062 117.046875 43.058594 138.722656 50.5 158.863281 C 57.097656 176.71875 65.03125 189.417969 74.058594 196.609375 C 78.574219 200.179688 92.265625 211.144531 109.875 209.109375 C 120.042969 207.917969 126.9375 203.058594 130.261719 200.726562 C 139.089844 194.527344 145.6875 185.847656 150.496094 174.238281 C 153.621094 166.75 155.308594 159.558594 156.5 154.300781 C 160.417969 137.632812 159.574219 123.941406 158.335938 104.996094 C 157.886719 97.753906 157.09375 90.460938 156.101562 83.320312 C 156.003906 82.523438 155.507812 81.832031 154.8125 81.484375 C 154.117188 81.085938 153.273438 81.085938 152.53125 81.433594 C 144.097656 85.550781 135.320312 88.875 126.339844 91.453125 C 116.917969 94.132812 107.195312 95.917969 97.472656 96.808594 C 78.972656 98.496094 60.417969 96.859375 42.414062 92.046875 C 42.167969 92.046875 41.96875 92 41.769531 92 Z M 41.769531 92 " fill-opacity="1" fill-rule="nonzero"/></g><path fill="#d4ac81" d="M 63 137.335938 C 62.949219 137.335938 62.851562 137.335938 62.800781 137.335938 C 61.164062 137.234375 59.921875 135.796875 60.023438 134.160156 C 60.617188 125.976562 67.316406 119.429688 75.25 119.28125 C 82.195312 119.132812 88.445312 123.894531 90.480469 130.789062 C 90.925781 132.375 90.03125 134.011719 88.445312 134.507812 C 86.859375 134.953125 85.222656 134.0625 84.726562 132.472656 C 83.433594 128.160156 79.566406 125.183594 75.351562 125.230469 C 70.441406 125.332031 66.324219 129.449219 65.976562 134.605469 C 65.828125 136.09375 64.535156 137.335938 63 137.335938 Z M 63 137.335938 " fill-opacity="1" fill-rule="nonzero"/><path fill="#d4ac81" d="M 114.683594 133.070312 C 114.636719 133.070312 114.636719 133.070312 114.683594 133.070312 C 113 133.070312 111.707031 131.679688 111.707031 130.042969 C 111.808594 121.3125 118.851562 114.121094 127.332031 114.070312 C 127.382812 114.070312 127.382812 114.070312 127.433594 114.070312 C 134.921875 114.070312 141.570312 119.777344 142.957031 127.414062 C 143.253906 129.050781 142.164062 130.589844 140.578125 130.886719 C 138.941406 131.183594 137.402344 130.09375 137.105469 128.507812 C 136.261719 123.695312 132.09375 120.074219 127.433594 120.074219 C 127.433594 120.074219 127.382812 120.074219 127.382812 120.074219 C 122.175781 120.125 117.710938 124.738281 117.660156 130.191406 C 117.609375 131.78125 116.273438 133.070312 114.683594 133.070312 Z M 114.683594 133.070312 " fill-opacity="1" fill-rule="nonzero"/><path fill="#d4ac81" d="M 105.507812 192.445312 C 98.761719 192.445312 91.917969 190.113281 86.113281 185.699219 C 78.027344 179.597656 73.019531 170.269531 72.324219 160.101562 C 72.273438 159.0625 72.722656 158.019531 73.613281 157.425781 C 74.507812 156.828125 75.597656 156.730469 76.589844 157.175781 C 81.945312 159.707031 92.910156 163.722656 106.402344 161.839844 C 117.808594 160.25 126.242188 155.292969 131.351562 151.371094 C 132.195312 150.726562 133.285156 150.578125 134.277344 150.976562 C 135.269531 151.371094 135.964844 152.214844 136.113281 153.257812 C 138.941406 171.066406 127.878906 188.375 111.363281 191.847656 C 109.425781 192.246094 107.492188 192.445312 105.507812 192.445312 Z M 79.019531 164.667969 C 80.609375 171.113281 84.328125 176.867188 89.683594 180.9375 C 95.835938 185.597656 103.277344 187.433594 110.070312 185.996094 C 121.976562 183.515625 130.410156 172.007812 130.507812 159.160156 C 124.851562 162.78125 116.964844 166.402344 107.144531 167.742188 C 95.835938 169.328125 86.164062 167.296875 79.019531 164.667969 Z M 79.019531 164.667969 " fill-opacity="1" fill-rule="nonzero"/><g clip-path="url(#8779edcba4)"><path fill="#d4ac81" d="M 182.691406 189.964844 C 181.648438 189.964844 180.605469 189.914062 179.566406 189.863281 C 169.496094 189.167969 160.019531 185.054688 151.339844 177.761719 C 150.347656 176.917969 150 175.527344 150.496094 174.339844 C 153.621094 166.847656 155.308594 159.65625 156.5 154.398438 C 160.417969 137.730469 159.574219 124.042969 158.335938 105.09375 C 157.886719 97.851562 157.09375 90.558594 156.101562 83.417969 C 156.003906 82.625 155.507812 81.929688 154.8125 81.582031 C 154.117188 81.183594 153.277344 81.183594 152.53125 81.53125 C 144.097656 85.648438 135.320312 88.972656 126.339844 91.550781 C 125.449219 91.800781 124.457031 91.601562 123.710938 91.054688 C 122.96875 90.460938 122.523438 89.566406 122.570312 88.625 C 122.820312 78.257812 123.960938 67.644531 125.945312 57.128906 C 126.441406 54.5 128.078125 52.316406 130.457031 51.125 C 132.839844 49.9375 135.566406 49.886719 137.949219 51.027344 C 154.117188 58.816406 171.332031 63.625 189.1875 65.363281 C 207.640625 67.148438 226.089844 65.5625 244 60.648438 C 246.628906 59.90625 249.355469 60.5 251.488281 62.1875 C 253.621094 63.875 254.761719 66.402344 254.664062 69.132812 C 254.363281 76.472656 253.71875 83.914062 252.828125 91.253906 C 250.445312 110.648438 248.710938 124.636719 241.417969 141.105469 C 236.210938 152.8125 226.539062 174.636719 204.066406 184.855469 C 200.546875 186.441406 192.808594 189.964844 182.691406 189.964844 Z M 156.796875 174.539062 C 164.039062 180.191406 171.777344 183.316406 179.960938 183.910156 C 190.128906 184.65625 197.816406 181.132812 201.539062 179.449219 C 221.976562 170.171875 231.050781 149.6875 235.914062 138.675781 C 242.855469 123 244.542969 109.359375 246.875 90.511719 C 247.769531 83.320312 248.363281 76.027344 248.660156 68.835938 C 248.710938 68.039062 248.363281 67.296875 247.71875 66.800781 C 247.074219 66.304688 246.28125 66.105469 245.484375 66.355469 C 226.886719 71.464844 207.6875 73.101562 188.542969 71.265625 C 169.992188 69.480469 152.085938 64.46875 135.320312 56.382812 C 134.625 56.039062 133.832031 56.039062 133.085938 56.382812 C 132.394531 56.730469 131.898438 57.375 131.746094 58.171875 C 130.109375 67 129.070312 75.878906 128.621094 84.609375 C 135.914062 82.328125 143.007812 79.5 149.902344 76.175781 C 152.332031 74.984375 155.160156 75.035156 157.589844 76.273438 C 160.019531 77.566406 161.609375 79.847656 162.003906 82.523438 C 163.046875 89.816406 163.839844 97.257812 164.289062 104.648438 C 165.527344 124.140625 166.421875 138.226562 162.304688 155.738281 C 161.113281 160.699219 159.574219 167.34375 156.796875 174.539062 Z M 156.796875 174.539062 " fill-opacity="1" fill-rule="nonzero"/></g><path fill="#d4ac81" d="M 216.320312 112.882812 C 214.136719 112.882812 211.90625 112.433594 209.773438 111.542969 C 203.472656 108.863281 199.40625 102.5625 199.953125 96.3125 C 200.101562 94.675781 201.539062 93.488281 203.175781 93.585938 C 204.8125 93.734375 206.050781 95.171875 205.902344 96.808594 C 205.605469 100.480469 208.183594 104.398438 212.105469 106.085938 C 216.617188 108.019531 221.726562 106.679688 223.761719 103.058594 C 224.554688 101.621094 226.339844 101.074219 227.828125 101.871094 C 229.265625 102.664062 229.8125 104.5 229.019531 105.9375 C 226.539062 110.351562 221.578125 112.882812 216.320312 112.882812 Z M 216.320312 112.882812 " fill-opacity="1" fill-rule="nonzero"/><path fill="#d4ac81" d="M 162.253906 103.308594 C 161.757812 103.308594 161.261719 103.308594 160.765625 103.257812 C 159.128906 103.109375 157.9375 101.671875 158.039062 100.035156 C 158.1875 98.398438 159.625 97.207031 161.261719 97.304688 C 165.773438 97.703125 169.84375 95.371094 170.882812 91.75 C 171.332031 90.164062 172.96875 89.269531 174.554688 89.71875 C 176.140625 90.164062 177.035156 91.800781 176.589844 93.386719 C 174.902344 99.289062 169 103.308594 162.253906 103.308594 Z M 162.253906 103.308594 " fill-opacity="1" fill-rule="nonzero"/><path fill="#d4ac81" d="M 210.914062 156.679688 C 209.523438 156.679688 208.332031 155.738281 207.988281 154.347656 C 205.457031 142.792969 195.785156 134.261719 184.972656 134.011719 C 184.824219 134.011719 184.722656 134.011719 184.574219 134.011719 C 172.421875 134.011719 165.082031 144.777344 164.78125 145.222656 C 163.890625 146.609375 162.003906 146.957031 160.667969 146.066406 C 159.277344 145.171875 158.929688 143.289062 159.824219 141.949219 C 160.816406 140.511719 169.742188 127.761719 185.070312 128.058594 C 198.5625 128.308594 210.617188 138.824219 213.742188 153.058594 C 214.085938 154.648438 213.097656 156.234375 211.457031 156.628906 C 211.359375 156.679688 211.113281 156.679688 210.914062 156.679688 Z M 210.914062 156.679688 " fill-opacity="1" fill-rule="nonzero"/><g clip-path="url(#54f24465a7)"><g transform="matrix(1, 0, 0, 1, 62, 147)"><g clip-path="url(#40a253b009)"><g clip-path="url(#af9cbe9527)"><path fill="#2c2922" d="M 0.914062 0.507812 L 82.054688 0.507812 L 82.054688 51.417969 L 0.914062 51.417969 Z M 0.914062 0.507812 " fill-opacity="1" fill-rule="nonzero"/></g></g></g></g><g clip-path="url(#d35a441f8f)"><g clip-path="url(#febf46af07)"><g clip-path="url(#1e557e84a2)"><g clip-path="url(#95eb369cf6)"><path fill="#d4ac81" d="M 116.648438 192.691406 C 113.570312 193.917969 110.65625 192.238281 108.394531 192.464844 C 106.128906 192.695312 103.609375 194.925781 100.351562 194.339844 C 97.089844 193.753906 82.289062 190.675781 87.136719 185.777344 C 91.980469 180.859375 107.097656 179.644531 107.097656 179.644531 C 107.097656 179.644531 122.152344 177.8125 127.882812 181.660156 C 133.613281 185.492188 119.726562 191.46875 116.648438 192.691406 Z M 155.625 149.878906 C 153.347656 153.019531 143.472656 168.488281 141.964844 177.640625 C 140.441406 186.796875 133.527344 174.15625 127.183594 170.226562 C 120.84375 166.292969 111.550781 167.230469 105.902344 167.800781 C 100.253906 168.371094 90.960938 169.3125 85.535156 174.433594 C 80.105469 179.554688 75.863281 193.320312 72.535156 184.65625 C 69.226562 175.988281 56.460938 162.808594 53.597656 160.1875 C 50.753906 157.585938 45.453125 144.398438 45.453125 144.398438 C 45.453125 144.398438 48.066406 167.917969 51.121094 173.335938 L 51.71875 173.277344 C 51.71875 173.277344 58.183594 195.636719 62.726562 202.183594 L 63.082031 201.726562 C 63.082031 201.726562 78.789062 220.847656 84.867188 224.335938 C 90.929688 227.855469 103.226562 231.863281 112.386719 232 C 121.335938 230.035156 132.582031 223.648438 137.820312 218.984375 C 143.078125 214.351562 154.644531 192.476562 154.644531 192.476562 L 155.082031 192.851562 C 158.222656 185.527344 160.085938 162.328125 160.085938 162.328125 L 160.683594 162.265625 C 162.59375 156.347656 160.449219 132.78125 160.449219 132.78125 C 160.449219 132.78125 157.890625 146.761719 155.625 149.878906 " fill-opacity="1" fill-rule="nonzero"/></g></g></g></g><g clip-path="url(#4bbfd3e9c8)"><g transform="matrix(1, 0, 0, 1, 165, 126)"><g clip-path="url(#d3e12ae5bd)"><g clip-path="url(#c6aedbd210)"><path fill="#2c2922" d="M 0.230469 0.46875 L 51.574219 0.46875 L 51.574219 34.085938 L 0.230469 34.085938 Z M 0.230469 0.46875 " fill-opacity="1" fill-rule="nonzero"/></g></g></g></g><g clip-path="url(#ef53427a69)"><g clip-path="url(#fcb75089e1)"><g clip-path="url(#cdd552d3b2)"><path fill="#d4ac81" d="M 172.582031 187.765625 C 155.425781 184.023438 144.898438 171.066406 141.210938 166.554688 C 133.246094 156.746094 127.75 141.6875 124.992188 121.742188 C 121.90625 99.800781 122.847656 77.105469 127.804688 54.378906 C 128.363281 51.808594 130.054688 49.640625 132.476562 48.542969 C 134.859375 47.386719 137.582031 47.472656 139.957031 48.703125 C 155.925781 56.957031 172.996094 62.253906 190.730469 64.496094 C 200.070312 65.671875 209.550781 65.960938 218.96875 65.375 C 227.921875 64.839844 236.90625 63.449219 245.640625 61.34375 C 248.269531 60.699219 251.019531 61.351562 253.128906 63.078125 C 255.230469 64.855469 256.296875 67.425781 256.113281 70.125 C 255.578125 77.472656 254.765625 84.910156 253.628906 92.226562 C 250.683594 111.539062 248.554688 125.492188 240.800781 141.722656 C 238.378906 146.777344 235.097656 153.675781 230.207031 160.734375 C 222.503906 171.847656 213.105469 179.796875 202.253906 184.386719 C 198.394531 186.03125 189.335938 189.84375 177.664062 188.667969 C 175.847656 188.375 174.179688 188.113281 172.582031 187.765625 Z M 136.589844 53.65625 C 136.058594 53.539062 135.484375 53.617188 134.984375 53.8125 C 134.246094 54.160156 133.761719 54.761719 133.589844 55.539062 C 128.832031 77.601562 127.894531 99.582031 130.875 120.84375 C 133.515625 139.695312 138.5625 153.792969 145.851562 162.746094 C 149.5 167.195312 160.539062 180.824219 178.175781 182.589844 C 188.367188 183.589844 196.136719 180.3125 199.882812 178.742188 C 209.828125 174.566406 218.125 167.488281 225.296875 157.175781 C 229.949219 150.523438 233.128906 143.855469 235.410156 138.972656 C 242.792969 123.523438 244.882812 109.96875 247.710938 91.191406 C 248.816406 84.019531 249.597656 76.726562 250.148438 69.535156 C 250.222656 68.738281 249.882812 67.957031 249.28125 67.46875 C 248.6875 66.933594 247.863281 66.753906 247.0625 66.933594 C 237.945312 69.160156 228.660156 70.535156 219.335938 71.144531 C 209.558594 71.75 199.679688 71.425781 189.992188 70.226562 C 171.554688 67.929688 153.777344 62.378906 137.210938 53.839844 C 136.96875 53.789062 136.785156 53.695312 136.589844 53.65625 Z M 136.589844 53.65625 " fill-opacity="1" fill-rule="nonzero"/></g></g></g><g clip-path="url(#9a35e8f29c)"><g clip-path="url(#df43bf1439)"><g clip-path="url(#1391922655)"><path fill="#d4ac81" d="M 177.464844 165.375 C 170.871094 163.9375 164.679688 160.199219 159.953125 154.652344 C 153.351562 146.96875 150.445312 136.789062 151.933594 126.707031 C 152.105469 125.675781 152.765625 124.753906 153.761719 124.363281 C 154.761719 123.972656 155.851562 124.109375 156.722656 124.753906 C 161.417969 128.367188 171.273438 134.628906 184.855469 135.664062 C 196.34375 136.542969 205.636719 133.492188 211.464844 130.753906 C 212.425781 130.304688 213.523438 130.390625 214.40625 130.988281 C 215.292969 131.589844 215.792969 132.558594 215.714844 133.609375 C 214.683594 151.609375 200.1875 166.167969 183.308594 166.039062 C 181.335938 166.015625 179.402344 165.796875 177.464844 165.375 Z M 157.503906 132.589844 C 157.679688 139.230469 160.089844 145.644531 164.457031 150.757812 C 169.472656 156.625 176.351562 160.003906 183.296875 160.046875 C 195.457031 160.160156 206.148438 150.714844 208.980469 138.183594 C 202.683594 140.515625 194.207031 142.371094 184.328125 141.589844 C 172.9375 140.730469 163.921875 136.679688 157.503906 132.589844 Z M 157.503906 132.589844 " fill-opacity="1" fill-rule="nonzero"/></g></g></g><g clip-path="url(#52c897014a)"><g clip-path="url(#8f060d1186)"><g clip-path="url(#0ad96c494f)"><path fill="#d4ac81" d="M 253.402344 179.398438 C 252.382812 179.175781 251.375 178.90625 250.367188 178.632812 C 240.679688 175.808594 232.300781 169.769531 225.371094 160.796875 C 224.582031 159.761719 224.539062 158.328125 225.277344 157.273438 C 229.925781 150.621094 233.105469 143.953125 235.390625 139.070312 C 242.769531 123.621094 244.863281 110.0625 247.691406 91.289062 C 248.796875 84.117188 249.574219 76.824219 250.128906 69.632812 C 250.199219 68.835938 249.863281 68.050781 249.257812 67.566406 C 248.664062 67.03125 247.839844 66.851562 247.039062 67.03125 C 237.921875 69.257812 228.636719 70.632812 219.316406 71.238281 C 218.390625 71.292969 217.464844 70.886719 216.851562 70.195312 C 216.253906 69.453125 216.007812 68.488281 216.257812 67.578125 C 218.707031 57.5 222.085938 47.371094 226.265625 37.523438 C 227.308594 35.058594 229.371094 33.273438 231.953125 32.621094 C 234.53125 31.964844 237.207031 32.496094 239.292969 34.117188 C 253.429688 45.171875 269.222656 53.542969 286.300781 59.042969 C 303.949219 64.71875 322.3125 67.101562 340.855469 66.117188 C 343.582031 65.949219 346.121094 67.113281 347.847656 69.214844 C 349.570312 71.316406 350.144531 74.03125 349.46875 76.675781 C 347.613281 83.785156 345.398438 90.917969 342.960938 97.902344 C 336.5 116.34375 331.824219 129.640625 321.191406 144.175781 C 313.609375 154.503906 299.507812 173.765625 275.375 178.960938 C 271.597656 179.761719 263.285156 181.554688 253.402344 179.398438 Z M 231.390625 158.808594 C 237.261719 165.875 244.15625 170.578125 252.023438 172.902344 C 261.800781 175.796875 270.0625 173.996094 274.058594 173.140625 C 296 168.429688 309.234375 150.351562 316.332031 140.628906 C 326.457031 126.792969 331.007812 113.824219 337.304688 95.90625 C 339.707031 89.070312 341.84375 82.070312 343.667969 75.109375 C 343.882812 74.34375 343.703125 73.542969 343.179688 72.917969 C 342.65625 72.296875 341.921875 71.933594 341.09375 72.007812 C 321.832031 73.035156 302.726562 70.546875 284.410156 64.671875 C 266.667969 58.972656 250.238281 50.265625 235.582031 38.792969 C 234.976562 38.304688 234.203125 38.136719 233.402344 38.316406 C 232.648438 38.507812 232.027344 39.03125 231.710938 39.777344 C 228.230469 48.054688 225.320312 56.507812 223.023438 64.941406 C 230.636719 64.265625 238.167969 63.015625 245.613281 61.238281 C 248.242188 60.589844 250.992188 61.242188 253.101562 62.972656 C 255.203125 64.75 256.269531 67.316406 256.085938 70.019531 C 255.550781 77.363281 254.738281 84.804688 253.601562 92.121094 C 250.65625 111.429688 248.527344 125.382812 240.773438 141.613281 C 238.554688 146.207031 235.636719 152.371094 231.390625 158.808594 Z M 231.390625 158.808594 " fill-opacity="1" fill-rule="nonzero"/></g></g></g></svg>