<svg xmlns="http://www.w3.org/2000/svg" xmlns:xlink="http://www.w3.org/1999/xlink" width="384" zoomAndPan="magnify" viewBox="0 0 288 287.999989" height="384" preserveAspectRatio="xMidYMid meet" version="1.0"><defs><g/><clipPath id="deaa5bbfb9"><rect x="0" width="179" y="0" height="99"/></clipPath><clipPath id="8c6c4baf33"><rect x="0" width="128" y="0" height="110"/></clipPath></defs><g transform="matrix(1, 0, 0, 1, 57, 79)"><g clip-path="url(#deaa5bbfb9)"><g fill="#d4ac81" fill-opacity="1"><g transform="translate(0.946422, 76.863516)"><g><path d="M 28.953125 0 L 16.390625 -15.03125 L 12.78125 -11.5 L 12.78125 0 L 2.25 0 L 2.25 -52.25 L 12.78125 -52.25 L 12.78125 -26.390625 L 25.109375 -38.71875 L 40 -38.640625 L 23.765625 -22.484375 L 42.9375 0 Z M 28.953125 0 "/></g></g></g><g fill="#d4ac81" fill-opacity="1"><g transform="translate(46.134755, 76.863516)"><g><path d="M 41.734375 0 L 31.953125 0 L 31.953125 -19.09375 L 31.875 -19.09375 L 31.875 -19.328125 C 31.875 -21.929688 30.945312 -24.160156 29.09375 -26.015625 C 27.238281 -27.867188 24.984375 -28.796875 22.328125 -28.796875 C 19.722656 -28.796875 17.46875 -27.84375 15.5625 -25.9375 C 13.65625 -24.03125 12.753906 -21.773438 12.859375 -19.171875 L 12.859375 -19.09375 L 12.78125 -19.09375 L 12.78125 0 L 2.25 0 L 2.25 -48.875 L 12.78125 -48.875 L 12.78125 -33.828125 C 15.132812 -36.640625 18.289062 -38.222656 22.25 -38.578125 C 27.769531 -39.023438 32.332031 -37.59375 35.9375 -34.28125 C 39.800781 -30.726562 41.734375 -25.742188 41.734375 -19.328125 Z M 41.734375 0 "/></g></g></g><g fill="#d4ac81" fill-opacity="1"><g transform="translate(90.120076, 76.863516)"><g><path d="M 30.078125 -38.875 L 40.59375 -38.875 L 40.59375 0 L 30.078125 0 L 30.078125 -4.359375 C 27.921875 -1.554688 24.660156 -0.15625 20.296875 -0.15625 C 14.984375 -0.101562 10.421875 -1.957031 6.609375 -5.71875 C 2.804688 -9.476562 0.878906 -14.035156 0.828125 -19.390625 C 0.773438 -24.710938 2.628906 -29.273438 6.390625 -33.078125 C 10.148438 -36.890625 14.710938 -38.820312 20.078125 -38.875 C 24.484375 -38.875 27.816406 -37.445312 30.078125 -34.59375 Z M 26.921875 -12.78125 C 28.773438 -14.632812 29.703125 -16.890625 29.703125 -19.546875 C 29.703125 -22.253906 28.75 -24.507812 26.84375 -26.3125 C 24.9375 -28.21875 22.707031 -29.117188 20.15625 -29.015625 C 17.5 -29.015625 15.242188 -28.085938 13.390625 -26.234375 C 11.523438 -24.378906 10.59375 -22.125 10.59375 -19.46875 C 10.59375 -16.863281 11.546875 -14.609375 13.453125 -12.703125 C 15.304688 -10.847656 17.5625 -9.921875 20.21875 -9.921875 C 22.925781 -10.023438 25.160156 -10.976562 26.921875 -12.78125 Z M 26.921875 -12.78125 "/></g></g></g><g fill="#d4ac81" fill-opacity="1"><g transform="translate(132.977572, 76.863516)"><g><path d="M 23.6875 -41.953125 C 22.53125 -41.953125 21.550781 -41.550781 20.75 -40.75 C 19.945312 -39.894531 19.546875 -38.894531 19.546875 -37.75 L 19.546875 -33.609375 L 27.296875 -33.609375 L 27.296875 -23.078125 L 19.546875 -23.078125 L 19.546875 0 L 9.015625 0 L 9.015625 -23.15625 L 2.25 -23.15625 L 2.25 -33.609375 L 9.015625 -33.609375 L 9.015625 -41.953125 C 9.015625 -44.859375 10.046875 -47.316406 12.109375 -49.328125 C 14.160156 -51.378906 16.640625 -52.40625 19.546875 -52.40625 L 27.296875 -52.40625 L 27.296875 -41.953125 Z M 23.6875 -41.953125 "/></g></g></g><g fill="#d4ac81" fill-opacity="1"><g transform="translate(162.526684, 76.863516)"><g><path d="M 12.703125 -52.40625 L 12.703125 -43.53125 L 2.25 -43.53125 L 2.25 -52.40625 Z M 12.78125 -38.640625 L 12.78125 0 L 2.25 0 L 2.25 -38.640625 Z M 12.78125 -38.640625 "/></g></g></g></g></g><g transform="matrix(1, 0, 0, 1, 115, 103)"><g clip-path="url(#8c6c4baf33)"><g fill="#ffe2c4" fill-opacity="1"><g transform="translate(1.290941, 78.814643)"><g><path d="M 17.890625 16.234375 C 15.785156 16.585938 13.816406 16.410156 11.984375 15.703125 C 10.160156 15.003906 8.519531 13.90625 7.0625 12.40625 C 5.613281 10.851562 4.445312 9.1875 3.5625 7.40625 C 2.6875 5.625 2.25 3.429688 2.25 0.828125 C 2.207031 -0.628906 2.347656 -2.082031 2.671875 -3.53125 C 2.992188 -4.988281 3.53125 -6.394531 4.28125 -7.75 C 5.082031 -9.195312 5.894531 -10.117188 6.71875 -10.515625 C 7.550781 -10.921875 8.519531 -11.078125 9.625 -10.984375 C 10.425781 -10.984375 10.875 -10.582031 10.96875 -9.78125 C 11.070312 -8.976562 10.9375 -8 10.5625 -6.84375 C 10.1875 -5.6875 9.695312 -4.535156 9.09375 -3.390625 C 8.84375 -2.835938 8.703125 -2.097656 8.671875 -1.171875 C 8.648438 -0.242188 8.703125 0.707031 8.828125 1.6875 C 8.953125 2.664062 9.09375 3.503906 9.25 4.203125 C 9.550781 5.609375 10.265625 6.773438 11.390625 7.703125 C 12.515625 8.628906 13.851562 9.144531 15.40625 9.25 C 18.019531 9.445312 20.65625 9.394531 23.3125 9.09375 C 25.96875 8.789062 28.394531 8.300781 30.59375 7.625 C 32.800781 6.945312 34.535156 6.132812 35.796875 5.1875 C 36.546875 4.632812 37.304688 3.929688 38.078125 3.078125 C 38.859375 2.222656 39.445312 1.359375 39.84375 0.484375 C 40.25 -0.390625 40.285156 -1.1875 39.953125 -1.90625 C 39.628906 -2.632812 38.71875 -3.175781 37.21875 -3.53125 C 36.269531 -3.78125 35.34375 -3.941406 34.4375 -4.015625 C 33.53125 -4.097656 32.601562 -4.265625 31.65625 -4.515625 C 30.695312 -4.816406 29.84375 -5.09375 29.09375 -5.34375 C 28.34375 -5.59375 27.71875 -6.242188 27.21875 -7.296875 C 26.914062 -8.148438 26.988281 -9.023438 27.4375 -9.921875 C 27.894531 -10.828125 28.773438 -11.328125 30.078125 -11.421875 C 30.878906 -11.523438 31.90625 -11.460938 33.15625 -11.234375 C 34.40625 -11.015625 35.65625 -10.753906 36.90625 -10.453125 C 38.164062 -10.148438 39.171875 -9.875 39.921875 -9.625 C 41.722656 -9.125 43.160156 -8.671875 44.234375 -8.265625 C 45.316406 -7.867188 46.207031 -7.554688 46.90625 -7.328125 C 47.613281 -7.109375 48.34375 -6.945312 49.09375 -6.84375 C 49.5 -6.84375 49.847656 -6.453125 50.140625 -5.671875 C 50.441406 -4.898438 50.59375 -4.160156 50.59375 -3.453125 C 50.59375 -2.753906 50.441406 -2.003906 50.140625 -1.203125 C 49.847656 -0.398438 49.5 0 49.09375 0 C 48.445312 0 47.804688 -0.148438 47.171875 -0.453125 C 46.546875 -0.753906 46.257812 -0.78125 46.3125 -0.53125 C 46.3125 1.425781 45.882812 3.179688 45.03125 4.734375 C 44.1875 6.285156 43.109375 7.625 41.796875 8.75 C 40.492188 9.882812 39.164062 10.851562 37.8125 11.65625 C 36.507812 12.40625 34.78125 13.144531 32.625 13.875 C 30.46875 14.601562 28.125 15.175781 25.59375 15.59375 C 23.0625 16.019531 20.492188 16.234375 17.890625 16.234375 Z M 23.453125 25.859375 C 22.554688 25.859375 21.691406 25.679688 20.859375 25.328125 C 20.035156 24.984375 19.625 24.335938 19.625 23.390625 C 19.625 22.984375 19.671875 22.503906 19.765625 21.953125 C 19.867188 21.398438 20.046875 20.800781 20.296875 20.15625 C 20.898438 19.445312 21.4375 18.96875 21.90625 18.71875 C 22.382812 18.46875 22.800781 18.34375 23.15625 18.34375 C 23.507812 18.34375 23.769531 18.378906 23.9375 18.453125 C 24.113281 18.535156 24.226562 18.578125 24.28125 18.578125 C 25.6875 19.328125 26.625 20.050781 27.09375 20.75 C 27.570312 21.445312 27.8125 22.125 27.8125 22.78125 C 27.8125 23.582031 27.335938 24.296875 26.390625 24.921875 C 25.441406 25.546875 24.460938 25.859375 23.453125 25.859375 Z M 29.625 25.265625 C 28.46875 24.410156 27.941406 23.429688 28.046875 22.328125 C 28.140625 21.328125 28.523438 20.4375 29.203125 19.65625 C 29.878906 18.882812 30.644531 18.546875 31.5 18.640625 C 32.957031 18.492188 34 18.671875 34.625 19.171875 C 35.25 19.671875 35.585938 20.320312 35.640625 21.125 C 35.691406 22.03125 35.398438 22.96875 34.765625 23.9375 C 34.140625 24.914062 33.363281 25.582031 32.4375 25.9375 C 31.507812 26.289062 30.570312 26.066406 29.625 25.265625 Z M 29.625 25.265625 "/></g></g></g><g fill="#ffe2c4" fill-opacity="1"><g transform="translate(50.389083, 78.814643)"><g><path d="M 14.515625 -38.5 C 13.109375 -38.644531 12.113281 -39.242188 11.53125 -40.296875 C 10.957031 -41.347656 10.722656 -42.378906 10.828125 -43.390625 C 10.929688 -44.390625 11.382812 -45.289062 12.1875 -46.09375 C 12.988281 -46.894531 14.039062 -47.171875 15.34375 -46.921875 C 15.84375 -46.816406 16.40625 -46.535156 17.03125 -46.078125 C 17.65625 -45.628906 18.191406 -45.078125 18.640625 -44.421875 C 19.097656 -43.773438 19.25 -43.050781 19.09375 -42.25 C 18.894531 -41.300781 18.40625 -40.4375 17.625 -39.65625 C 16.851562 -38.882812 15.816406 -38.5 14.515625 -38.5 Z M 0 0 C -0.351562 0 -0.691406 -0.382812 -1.015625 -1.15625 C -1.335938 -1.9375 -1.5 -2.703125 -1.5 -3.453125 C -1.5 -4.160156 -1.335938 -4.898438 -1.015625 -5.671875 C -0.691406 -6.453125 -0.351562 -6.84375 0 -6.84375 C 0.800781 -6.84375 1.816406 -6.90625 3.046875 -7.03125 C 4.273438 -7.15625 5.414062 -7.316406 6.46875 -7.515625 C 7.519531 -7.710938 8.144531 -7.960938 8.34375 -8.265625 C 7.1875 -9.273438 6.195312 -10.503906 5.375 -11.953125 C 4.550781 -13.410156 3.925781 -14.925781 3.5 -16.5 C 3.070312 -18.082031 2.84375 -19.570312 2.8125 -20.96875 C 2.789062 -22.375 3.003906 -23.53125 3.453125 -24.4375 C 3.804688 -26.1875 4.546875 -27.710938 5.671875 -29.015625 C 6.804688 -30.328125 8.132812 -31.359375 9.65625 -32.109375 C 11.1875 -32.859375 12.765625 -33.242188 14.390625 -33.265625 C 16.023438 -33.296875 17.519531 -32.859375 18.875 -31.953125 C 20.425781 -31.648438 21.753906 -30.820312 22.859375 -29.46875 C 23.960938 -28.113281 24.789062 -26.507812 25.34375 -24.65625 C 25.894531 -22.800781 26.128906 -20.894531 26.046875 -18.9375 C 25.972656 -16.988281 25.535156 -15.238281 24.734375 -13.6875 C 24.640625 -13.4375 24.390625 -12.984375 23.984375 -12.328125 C 23.585938 -11.679688 23.113281 -10.992188 22.5625 -10.265625 C 22.007812 -9.535156 21.457031 -8.894531 20.90625 -8.34375 C 21.550781 -7.988281 22.4375 -7.710938 23.5625 -7.515625 C 24.695312 -7.316406 25.816406 -7.164062 26.921875 -7.0625 C 28.023438 -6.96875 28.828125 -6.894531 29.328125 -6.84375 C 29.722656 -6.84375 30.070312 -6.453125 30.375 -5.671875 C 30.675781 -4.898438 30.828125 -4.160156 30.828125 -3.453125 C 30.828125 -2.703125 30.675781 -1.9375 30.375 -1.15625 C 30.070312 -0.382812 29.722656 0 29.328125 0 C 27.265625 0 25.734375 -0.109375 24.734375 -0.328125 C 23.734375 -0.554688 22.65625 -0.773438 21.5 -0.984375 C 20.394531 -1.179688 19.492188 -1.414062 18.796875 -1.6875 C 18.097656 -1.96875 17.242188 -2.429688 16.234375 -3.078125 C 15.941406 -3.285156 15.628906 -3.453125 15.296875 -3.578125 C 14.972656 -3.703125 14.660156 -3.8125 14.359375 -3.90625 C 14.003906 -3.601562 13.488281 -3.25 12.8125 -2.84375 C 12.132812 -2.445312 11.546875 -2.125 11.046875 -1.875 C 9.296875 -1.070312 7.644531 -0.554688 6.09375 -0.328125 C 4.539062 -0.109375 2.507812 0 0 0 Z M 14.65625 -11.5 C 15.414062 -11.601562 16.082031 -11.992188 16.65625 -12.671875 C 17.226562 -13.347656 17.691406 -14.007812 18.046875 -14.65625 C 18.796875 -16.113281 19.195312 -17.644531 19.25 -19.25 C 19.300781 -20.851562 19.050781 -22.304688 18.5 -23.609375 C 17.945312 -24.910156 17.207031 -25.820312 16.28125 -26.34375 C 15.351562 -26.875 14.285156 -26.765625 13.078125 -26.015625 C 11.078125 -24.710938 9.890625 -23.132812 9.515625 -21.28125 C 9.140625 -19.425781 9.398438 -17.519531 10.296875 -15.5625 C 10.398438 -15.007812 10.773438 -14.441406 11.421875 -13.859375 C 12.078125 -13.285156 12.753906 -12.773438 13.453125 -12.328125 C 14.160156 -11.878906 14.5625 -11.601562 14.65625 -11.5 Z M 14.65625 -11.5 "/></g></g></g><g fill="#ffe2c4" fill-opacity="1"><g transform="translate(79.71263, 78.814643)"><g><path d="M 22.78125 -40.59375 C 21.375 -40.75 20.382812 -41.351562 19.8125 -42.40625 C 19.238281 -43.457031 19 -44.484375 19.09375 -45.484375 C 19.195312 -46.484375 19.648438 -47.375 20.453125 -48.15625 C 21.253906 -48.9375 22.28125 -49.203125 23.53125 -48.953125 C 24.03125 -48.898438 24.601562 -48.644531 25.25 -48.1875 C 25.90625 -47.738281 26.445312 -47.175781 26.875 -46.5 C 27.300781 -45.820312 27.441406 -45.109375 27.296875 -44.359375 C 27.097656 -43.410156 26.617188 -42.546875 25.859375 -41.765625 C 25.109375 -40.984375 24.082031 -40.59375 22.78125 -40.59375 Z M 0 0 C -0.351562 0 -0.691406 -0.382812 -1.015625 -1.15625 C -1.335938 -1.9375 -1.5 -2.703125 -1.5 -3.453125 C -1.5 -4.160156 -1.335938 -4.898438 -1.015625 -5.671875 C -0.691406 -6.453125 -0.351562 -6.84375 0 -6.84375 C 0.75 -6.738281 1.765625 -6.773438 3.046875 -6.953125 C 4.328125 -7.128906 5.492188 -7.441406 6.546875 -7.890625 C 7.691406 -8.390625 8.828125 -8.914062 9.953125 -9.46875 C 11.085938 -10.019531 12.207031 -10.75 13.3125 -11.65625 C 14.113281 -12.351562 15.175781 -13.078125 16.5 -13.828125 C 17.832031 -14.585938 19.285156 -15.34375 20.859375 -16.09375 C 22.441406 -16.84375 23.972656 -17.566406 25.453125 -18.265625 C 26.929688 -18.972656 28.195312 -19.601562 29.25 -20.15625 C 27.394531 -21 25.160156 -22.109375 22.546875 -23.484375 C 19.941406 -24.867188 17.585938 -26.414062 15.484375 -28.125 C 15.285156 -28.269531 14.859375 -28.539062 14.203125 -28.9375 C 13.554688 -29.34375 12.859375 -29.734375 12.109375 -30.109375 C 11.359375 -30.484375 10.707031 -30.671875 10.15625 -30.671875 C 9.75 -30.671875 9.320312 -30.394531 8.875 -29.84375 C 8.425781 -29.289062 8.007812 -28.726562 7.625 -28.15625 C 7.25 -27.582031 6.988281 -27.242188 6.84375 -27.140625 C 5.59375 -26.335938 4.628906 -25.945312 3.953125 -25.96875 C 3.273438 -26 2.660156 -26.316406 2.109375 -26.921875 C 1.703125 -27.367188 1.472656 -28.117188 1.421875 -29.171875 C 1.378906 -30.222656 1.804688 -31.300781 2.703125 -32.40625 C 3.660156 -33.65625 4.773438 -34.664062 6.046875 -35.4375 C 7.328125 -36.21875 8.695312 -36.835938 10.15625 -37.296875 C 11.300781 -37.640625 12.410156 -37.546875 13.484375 -37.015625 C 14.566406 -36.492188 15.609375 -36.007812 16.609375 -35.5625 C 18.566406 -34.65625 20.25 -33.585938 21.65625 -32.359375 C 23.0625 -31.140625 24.488281 -29.898438 25.9375 -28.640625 C 27.394531 -27.390625 29.132812 -26.25 31.15625 -25.21875 C 33.1875 -24.195312 35.804688 -23.457031 39.015625 -23 C 40.472656 -22.800781 41.539062 -22.140625 42.21875 -21.015625 C 42.894531 -19.890625 43.082031 -18.925781 42.78125 -18.125 C 42.476562 -17.769531 42.175781 -17.328125 41.875 -16.796875 C 41.570312 -16.273438 40.820312 -15.890625 39.625 -15.640625 C 38.96875 -15.585938 38.328125 -15.5625 37.703125 -15.5625 C 37.078125 -15.5625 36.460938 -15.5625 35.859375 -15.5625 C 35.109375 -15.613281 34.21875 -15.4375 33.1875 -15.03125 C 32.164062 -14.632812 31.148438 -14.171875 30.140625 -13.640625 C 29.140625 -13.117188 28.265625 -12.679688 27.515625 -12.328125 C 25.765625 -11.679688 24.1875 -10.929688 22.78125 -10.078125 C 21.375 -9.222656 19.769531 -7.992188 17.96875 -6.390625 C 15.863281 -4.535156 13.519531 -3.191406 10.9375 -2.359375 C 8.351562 -1.535156 5.734375 -0.820312 3.078125 -0.21875 C 2.734375 -0.175781 2.222656 -0.140625 1.546875 -0.109375 C 0.867188 -0.0859375 0.351562 -0.0507812 0 0 Z M 0 0 "/></g></g></g></g></g></svg>